<svg id="Capa_1" enable-background="new 0 0 512.001 512.001" height="512" viewBox="0 0 512.001 512.001" width="512" xmlns="http://www.w3.org/2000/svg"><g><path d="m401.536 294.091c1.705-.63 3.123-1.858 3.991-3.455l42.265-77.808c4.381-8.064 13.832-11.679 22.477-8.591 4.72 1.686 8.475 5.121 10.575 9.672s2.275 9.638.494 14.322l-39.224 103.166c-2.518 6.623-7.407 11.992-13.765 15.118l-76.227 37.48c-3.717 1.828-5.249 6.323-3.421 10.039 1.304 2.653 3.967 4.193 6.736 4.192 1.111 0 2.24-.248 3.304-.771l76.227-37.48c9.778-4.807 17.295-13.063 21.167-23.248l39.224-103.166c3.226-8.484 2.908-17.695-.894-25.936-3.802-8.242-10.603-14.462-19.151-17.515-15.649-5.589-32.769.953-40.702 15.557l-40.919 75.331-4.872 1.801c-5.213-31.551-21.376-59.978-46.171-80.848-3.169-2.667-7.9-2.26-10.568.909-2.667 3.169-2.26 7.9.909 10.568 22.781 19.173 37.363 45.517 41.469 74.678l-131.204 48.486c-8.1 2.993-17.253-1.111-20.406-9.15-3.205-8.17.827-17.448 8.986-20.681l33.639-13.328c18.172-7.201 27.36-27.943 20.483-46.24-6.936-18.448-27.639-27.954-46.151-21.195l-95.003 34.697c17.895-45.008 61.695-75.33 111.186-75.33 17.926 0 35.16 3.864 51.223 11.485 3.744 1.778 8.216.181 9.991-3.561 1.776-3.742.181-8.215-3.561-9.991-15.71-7.454-32.408-11.712-49.74-12.704 1.48-13.478 7.051-26.103 16.106-36.331.977.366 1.989.659 3.035.854 6.216 1.154 12.459 1.72 18.662 1.72 26.758 0 52.709-10.537 71.957-29.785 23.71-23.71 34.202-57.586 28.065-90.618 0 0 0 0 0-.001-1.379-7.421-7.292-13.332-14.711-14.71-33.033-6.139-66.909 4.354-90.619 28.064s-34.202 57.586-28.065 90.618c.215 1.156.551 2.27.975 3.341-5.471 6.061-9.946 12.816-13.317 20.066-3.371-7.249-7.846-14.005-13.316-20.066.423-1.071.76-2.185.975-3.34 6.137-33.033-4.355-66.909-28.065-90.619-23.712-23.711-57.585-34.201-90.621-28.066-7.421 1.378-13.333 7.29-14.712 14.711-6.137 33.033 4.354 66.909 28.065 90.619 19.249 19.25 45.196 29.786 71.957 29.785 6.2-.001 12.448-.566 18.662-1.721 1.046-.194 2.057-.488 3.034-.853 9.056 10.229 14.628 22.856 16.107 36.337-56.707 3.309-105.463 41.96-121.382 96.708l-5.933 2.167c-22.506 8.22-39.788 25.961-47.413 48.676l-13.053 38.88c-1.318 3.927.796 8.179 4.723 9.496 3.924 1.319 8.179-.796 9.497-4.723l13.053-38.88c6.166-18.367 20.141-32.713 38.339-39.36l119.044-43.477c10.818-3.948 22.913 1.605 26.964 12.383 4.019 10.69-1.35 22.809-11.967 27.016l-33.639 13.328c-15.823 6.27-23.64 24.26-17.425 40.103 6.113 15.588 23.866 23.547 39.57 17.744zm-94.534-253.699c16.41-16.41 38.532-25.391 61.352-25.391 5.289 0 10.62.483 15.921 1.468 1.363.253 2.449 1.339 2.703 2.704l-.001-.001c5.233 28.172-3.71 57.059-23.924 77.273-18.645 18.644-44.67 27.688-70.703 24.877l36.873-38.379c2.87-2.987 2.775-7.735-.212-10.604-2.987-2.87-7.735-2.774-10.604.212l-36.358 37.843c-2.577-25.801 6.476-51.525 24.953-70.002zm-158.079 56.053c-20.213-20.214-29.157-49.102-23.923-77.272.253-1.363 1.339-2.45 2.703-2.703 5.303-.985 10.63-1.468 15.92-1.468 22.817 0 44.942 8.983 61.352 25.391 18.477 18.477 27.529 44.201 24.953 70l-36.358-37.843c-2.87-2.987-7.617-3.082-10.604-.212s-3.082 7.618-.212 10.604l36.874 38.379c-26.038 2.815-52.06-6.232-70.705-24.876z"/><path d="m322.786 398.419-119.93 58.968c-8.289 4.076-13.438 12.346-13.438 21.583v17.255c0 .428-.348.775-.775.775h-158.437c-.098 0-.397 0-.629-.323-.232-.322-.137-.605-.105-.699l34.64-103.183c1.318-3.927-.796-8.179-4.723-9.497-3.925-1.32-8.178.796-9.497 4.723l-34.64 103.182c-1.612 4.8-.809 10.12 2.147 14.23 2.956 4.111 7.744 6.565 12.808 6.565h158.436c8.699 0 15.775-7.077 15.775-15.775v-17.253c0-3.476 1.938-6.588 5.057-8.122l119.93-58.968c3.717-1.828 5.249-6.323 3.421-10.039-1.828-3.717-6.322-5.25-10.04-3.422z"/></g></svg>