<svg id="Capa_1" enable-background="new 0 0 512.167 512.167" height="512" viewBox="0 0 512.167 512.167" width="512" xmlns="http://www.w3.org/2000/svg"><path id="_x3C_Group_x3E__2_" d="m449.487 361.167c19.483-19.073 31.596-45.646 31.596-75v-15h-15c-29.354 0-55.927 12.113-75 31.596v-32.673c50.816-7.301 90-51.119 90-103.924v-15h-15c-29.354 0-55.927 12.113-75 31.596v-40.384c9.695-10.315 30-35.573 30-66.212 0-39.914-34.206-67.581-35.663-68.739l-9.337-7.427-9.337 7.427c-1.457 1.158-35.663 28.826-35.663 68.739 0 30.639 20.305 55.897 30 66.212v40.384c-19.073-19.483-45.646-31.596-75-31.596h-15v15c0 52.804 39.184 96.623 90 103.924v32.672c-19.073-19.483-45.646-31.596-75-31.596h-15v15c0 29.354 12.113 55.927 31.596 75h-93.193c19.483-19.073 31.596-45.646 31.596-75v-15h-15c-29.354 0-55.927 12.113-75 31.596v-32.672c50.816-7.301 90-51.119 90-103.924v-15h-15c-29.354 0-55.927 12.113-75 31.596v-40.384c9.695-10.315 30-35.573 30-66.212 0-39.914-34.206-67.581-35.663-68.739l-9.336-7.427-9.337 7.427c-1.457 1.158-35.663 28.826-35.663 68.739 0 30.639 20.305 55.897 30 66.212v40.384c-19.073-19.483-45.646-31.596-75-31.596h-15v15c0 52.804 39.184 96.623 90 103.924v32.672c-19.073-19.483-45.646-31.596-75-31.596h-15v15c0 29.354 12.113 55.927 31.596 75h-62.596v30h31v15c0 36.219 25.808 66.522 60 73.491v32.509h30v-31h270v31h30v-32.509c34.192-6.968 60-37.271 60-73.491v-15h31v-30h-62.596zm-.33-178.075c-6.434 27.791-28.357 49.714-56.148 56.148 6.434-27.79 28.357-49.714 56.148-56.148zm-146.148 0c27.791 6.434 49.714 28.357 56.148 56.148-27.791-6.433-49.714-28.357-56.148-56.148zm-93.852 0c-6.434 27.791-28.357 49.714-56.148 56.148 6.434-27.79 28.357-49.714 56.148-56.148zm-146.148 0c27.791 6.434 49.714 28.357 56.148 56.148-27.791-6.433-49.714-28.357-56.148-56.148zm386.148 120c-6.434 27.791-28.357 49.714-56.148 56.148 6.434-27.79 28.357-49.714 56.148-56.148zm-73.082-262.649c6.865 8.228 15.008 21.076 15.008 35.723 0 14.722-8.038 28.445-14.999 37.569-6.967-9.13-15.001-22.851-15.001-37.569 0-14.676 8.13-27.507 14.992-35.723zm-16.918 318.798c-27.791-6.434-49.714-28.357-56.148-56.148 27.791 6.433 49.714 28.357 56.148 56.148zm-150-56.149c-6.434 27.791-28.357 49.714-56.148 56.148 6.434-27.79 28.357-49.714 56.148-56.148zm-73.082-262.649c6.865 8.228 15.008 21.076 15.008 35.723 0 14.722-8.038 28.445-14.999 37.569-6.967-9.13-15.001-22.851-15.001-37.569 0-14.676 8.13-27.507 14.992-35.723zm-16.918 318.798c-27.791-6.434-49.714-28.357-56.148-56.148 27.791 6.433 49.714 28.357 56.148 56.148zm331.926 46.926c0 24.813-20.187 45-45 45h-300c-24.813 0-45-20.187-45-45v-15h390z"/></svg>